<?xml version="1.0" encoding="UTF-8" standalone="no"?>
<!-- Created with Inkscape (http://www.inkscape.org/) -->

<svg
   xmlns:dc="http://purl.org/dc/elements/1.1/"
   xmlns:cc="http://creativecommons.org/ns#"
   xmlns:rdf="http://www.w3.org/1999/02/22-rdf-syntax-ns#"
   xmlns:svg="http://www.w3.org/2000/svg"
   xmlns="http://www.w3.org/2000/svg"
   xmlns:sodipodi="http://sodipodi.sourceforge.net/DTD/sodipodi-0.dtd"
   xmlns:inkscape="http://www.inkscape.org/namespaces/inkscape"
   width="196.78294mm"
   height="79.266281mm"
   viewBox="0 0 196.78294 79.266281"
   version="1.1"
   id="svg1504"
   inkscape:version="0.92.3 (2405546, 2018-03-11)"
   sodipodi:docname="logo.svg">
  <defs
     id="defs1498" />
  <sodipodi:namedview
     id="base"
     pagecolor="#ffffff"
     bordercolor="#666666"
     borderopacity="1.0"
     inkscape:pageopacity="0.0"
     inkscape:pageshadow="2"
     inkscape:zoom="0.98994949"
     inkscape:cx="458.59608"
     inkscape:cy="-67.714594"
     inkscape:document-units="mm"
     inkscape:current-layer="layer1"
     showgrid="false"
     fit-margin-top="0"
     fit-margin-left="0"
     fit-margin-right="0"
     fit-margin-bottom="0"
     inkscape:window-width="1920"
     inkscape:window-height="1018"
     inkscape:window-x="1358"
     inkscape:window-y="32"
     inkscape:window-maximized="1" />
  <metadata
     id="metadata1501">
    <rdf:RDF>
      <cc:Work
         rdf:about="">
        <dc:format>image/svg+xml</dc:format>
        <dc:type
           rdf:resource="http://purl.org/dc/dcmitype/StillImage" />
        <dc:title></dc:title>
      </cc:Work>
    </rdf:RDF>
  </metadata>
  <g
     inkscape:label="Capa 1"
     inkscape:groupmode="layer"
     id="layer1"
     transform="translate(147.52838,88.859331)">
    <path
       style="fill:#fd0101;stroke-width:0.26458338"
       d="m -87.242564,-9.8196306 c -0.83607,-0.4324084 -0.997551,-1.6796494 -0.374528,-2.8928694 0.247628,-0.482208 1.368419,-2.06737 2.490639,-3.522581 7.77354,-10.080119 13.225431,-21.45044 14.969889,-31.22083 0.700781,-3.924909 0.653191,-9.16133 -0.12365,-13.606658 -0.396661,-2.269841 -0.56537,-4.020631 -0.467249,-4.849061 0.304959,-2.57488 2.285198,-5.62137 4.384609,-6.74549 1.69228,-0.90611 1.691582,-0.88083 0.133771,-4.89007 -0.481841,-1.24007 -0.48096,-1.26279 0.0946,-2.44739 0.70794,-1.45714 1.18187,-1.51156 2.599121,-0.29845 1.296379,1.10965 2.477029,3.22713 2.710871,4.86191 0.1378,0.96334 0.321288,1.30214 0.83603,1.54369 0.36272,0.1702 1.331367,0.61322 2.152568,0.98448 2.865181,1.29534 4.4304,3.23878 5.00625,6.21593 0.417261,2.15721 0.186841,9.704191 -0.41751,13.674859 -2.53792,16.6746 -11.171759,30.511432 -24.67369,39.542722 -2.69672,1.803811 -6.345589,3.6162204 -7.73418,3.8416104 -0.536448,0.0871 -1.20431,0.006 -1.5875,-0.191802 z M -100.53187,-37.945461 c -5.96026,-1.44481 -10.25868,-6.432298 -11.32676,-13.142478 -0.40995,-2.575521 -0.18991,-8.218361 0.40519,-10.390892 0.23917,-0.873119 0.87175,-2.480459 1.40573,-3.571869 3.64269,-7.44529 13.396176,-10.06956 21.498906,-5.78449 l 1.471872,0.77839 1.53434,-0.92393 c 1.796827,-1.082 3.901228,-1.58399 5.933688,-1.41544 1.1659,0.0967 1.573282,0.26159 2.06847,0.83727 l 0.61662,0.71687 v 15.536799 c 0,17.04902 0.0742,16.250431 -1.590419,17.11125 -1.608042,0.831551 -5.72244,0.194641 -7.66133,-1.185968 l -0.833631,-0.593591 -1.551101,0.69609 c -3.693388,1.657501 -8.446968,2.18639 -11.971575,1.331989 z m 9.452848,-9.460989 1.5875,-0.580551 0.0706,-6.95697 0.0706,-6.95696 -1.44811,-0.662969 c -2.866159,-1.31217 -5.382188,-1.29597 -6.780458,0.0437 -1.181132,1.13159 -1.621801,2.7479 -1.765581,6.475879 -0.189431,4.911752 0.596059,7.475321 2.67979,8.74594 1.13057,0.689401 3.53218,0.642951 5.58573,-0.108029 z m 116.70802,9.450689 c -5.15675,-1.247748 -9.31043,-5.351949 -10.83831,-10.70919 -1.49916,-5.256538 -0.93437,-12.08341 1.36654,-16.518039 2.54123,-4.89782 7.31792,-7.64867 13.28147,-7.64867 3.16893,0 4.8927,0.41467 7.86714,1.89253 1.78019,0.8845 1.94718,0.92097 2.38843,0.52165 0.26092,-0.23613 1.18555,-0.75769 2.05473,-1.15901 1.33328,-0.61561 1.94088,-0.73128 3.88671,-0.73996 2.05431,-0.009 2.3724,0.0556 2.91042,0.59221 l 0.60403,0.6025 0.0744,15.327509 c 0.0836,17.244671 0.12011,16.870341 -1.71848,17.64053 -1.89783,0.795002 -6.22374,0.01529 -7.79271,-1.404638 -0.42183,-0.38176 -0.62986,-0.34603 -2.48682,0.427019 -3.77497,1.571521 -8.13468,2.013439 -11.5975,1.175559 z m 9.2998,-9.41411 1.65365,-0.580769 v -6.95643 c 0,-6.92545 -0.003,-6.958121 -0.59531,-7.33524 -1.94913,-1.24026 -5.35217,-1.64488 -6.77339,-0.80534 -1.88676,1.11454 -2.81599,5.036869 -2.37765,10.03624 0.27995,3.192939 1.31901,5.25821 2.99947,5.961851 1.00771,0.421939 3.40998,0.270859 5.09323,-0.320312 z m -180.796728,9.0698 c -0.68704,-0.312039 -1.19395,-0.76857 -1.39659,-1.257779 -0.24096,-0.581739 -0.30023,-5.994921 -0.24442,-22.324671 l 0.0737,-21.556719 0.8214,-1.44817 c 1.4333,-2.52697 4.27136,-3.97972 7.75944,-3.97189 2.10022,0.005 2.91198,0.37009 3.5265,1.58728 0.43562,0.86282 0.46124,2.42778 0.39688,24.24415 -0.0675,22.89756 -0.0784,23.33259 -0.59797,23.91516 -0.96189,1.078611 -1.99788,1.314479 -5.74619,1.30828 -2.84661,-0.005 -3.71911,-0.0989 -4.59272,-0.495641 z m 18.51948,0.217011 c -0.4484,-0.130199 -1.04371,-0.489111 -1.32292,-0.797589 -0.49043,-0.541832 -0.51005,-1.28856 -0.57841,-22.013111 -0.0779,-23.60445 -0.10588,-23.14349 1.5263,-25.11323 0.45966,-0.55472 1.56569,-1.35115 2.54789,-1.83469 1.415,-0.6966 2.13787,-0.87556 3.91301,-0.96873 2.3971,-0.12582 3.55545,0.24521 4.18041,1.33901 0.26804,0.46913 0.33857,5.48027 0.33857,24.05492 0,23.397951 -0.002,23.46439 -0.55395,24.20937 -0.30467,0.410871 -0.95951,0.88914 -1.45521,1.062831 -1.05426,0.369408 -7.37916,0.414448 -8.59569,0.0612 z m 93.296808,-0.02619 c -1.21497,-0.348591 -2.31534,-1.155641 -2.76138,-2.025322 -0.19937,-0.388709 -2.76933,-7.34841 -5.71104,-15.466009 -3.81907,-10.53866 -5.302052,-14.94454 -5.185942,-15.40716 0.306172,-1.2199 1.294762,-1.45183 6.161082,-1.44547 3.82938,0.005 4.60186,0.0771 5.57832,0.52023 1.48577,0.67435 1.65404,1.07494 4.18772,9.96962 1.13411,3.981371 2.14156,7.088349 2.23879,6.904411 0.0972,-0.183952 1.38918,-3.787262 2.87098,-8.007361 2.9188,-8.31255 3.19624,-8.80971 5.23156,-9.3749 1.30139,-0.36139 6.53202,-0.36139 7.83341,0 2.07697,0.57675 2.32926,1.03067 5.3480602,9.622 1.5306,4.35601 2.81804,7.95515 2.86098,7.99809 0.0429,0.0429 1.0067,-3.16388 2.14169,-7.126269 2.60819005,-9.105521 2.70051005,-9.322801 4.25261005,-10.009371 1.09538995,-0.48455 1.65974995,-0.52758 5.93640995,-0.45271 4.2069098,0.0737 4.7870198,0.1381 5.2821398,0.58677 0.30591,0.27722 0.5562,0.76564 0.5562,1.08539 0,0.84111 -10.7038498,30.238289 -11.3016398,31.038971 -1.00410995,1.344899 -2.29435995,1.75836 -5.80364,1.85978 -2.40953,0.0696 -3.58524,-0.01479 -4.69434,-0.33724 -2.5340002,-0.736661 -2.8616402,-1.247751 -5.8279402,-9.0912 -1.44268,-3.81472 -2.65115,-6.906072 -2.68549,-6.86966 -0.0343,0.0364 -1.22706,3.146819 -2.65051,6.912038 -2.91679,7.715332 -3.28187,8.296741 -5.65172,9.000511 -1.62142,0.48151 -6.68156,0.552339 -8.20631,0.114861 z"
       id="path1487"
       inkscape:connector-curvature="0" />
  </g>
</svg>
